<svg width="48" height="48" version="1.1" xmlns="http://www.w3.org/2000/svg">
 <g transform="translate(-293.06 -614.71)">
  <path d="m308.61 622.63c-10.613 0-13.823 4.147-13.823 4.147v29.772s3.2102-3.1899 13.823-3.1899c8.6392 0 13.25 3.1899 21.266 3.1899 6.1896 0 9.4633-4.147 9.4633-4.147v-29.772s-3.3801 3.0837-9.5697 3.0837c-9.994 0-11.78-3.0837-21.16-3.0837zm8.6847 8.2108c3.9365 0 7.0362 3.2007 7.0362 7.2214 0 4.0206-3.0997 7.3138-7.0362 7.3138-3.9366 0-7.1289-3.2932-7.1289-7.3138 0-4.0207 3.1922-7.2214 7.1289-7.2214zm-13.517 2.8701 2.87 3.0552-2.7774-0.09 2.7774 2.9626-2.87-0.09 2.87 3.0552-2.9626-0.09 0.09-2.9626h-0.09l0.09-2.8703h-0.09zm13.517 0c-2.3523 0-4.3513 1.9487-4.3513 4.3513 0 2.4025 1.999 4.3512 4.3513 4.3512 2.3522 0 4.2587-1.9487 4.2587-4.3512 0-2.4026-1.9065-4.3513-4.2587-4.3513zm12.961 0v2.9626l0.09 2.87h-0.09l0.09 2.9626-2.9626 0.09 2.87-3.0552-2.87 0.09 2.7774-2.9626-2.7774 0.09zm-23.515 8.7952 2.87 3.055-2.9626-0.09zm20.553 0 0.09 2.9625-2.9626 0.09zm-17.59 2.9625 2.87 3.0552-2.9626-0.09zm14.628 0 0.09 2.9626-2.9626 0.09z" fill="#bebebe"/>
 </g>
</svg>
